<?xml version="1.0" standalone="no"?>
<!DOCTYPE svg PUBLIC "-//W3C//DTD SVG 20010904//EN"
 "http://www.w3.org/TR/2001/REC-SVG-20010904/DTD/svg10.dtd">
<svg version="1.0" xmlns="http://www.w3.org/2000/svg"
 width="1917.000000pt" height="1021.000000pt" viewBox="0 0 1917.000000 1021.000000"
 preserveAspectRatio="xMidYMid meet">

<g transform="translate(0.000000,1021.000000) scale(0.100000,-0.100000)"
fill="#000000" stroke="none">
<path d="M0 5105 l0 -5105 9575 0 9575 0 0 21 c0 11 5 17 10 14 7 -4 10 1693
10 5084 l0 5091 -9585 0 -9585 0 0 -5105z m9448 4918 c-13 -3 -18 -16 -20 -46
l-1 -42 -4 42 c-3 29 -9 43 -21 46 -9 3 1 5 23 5 22 0 32 -2 23 -5z m92 -7
c28 -35 -11 -93 -47 -70 -36 22 -23 84 17 84 10 0 23 -7 30 -14z m89 5 c7 -5
14 -21 14 -36 0 -30 -17 -45 -50 -45 -21 0 -23 5 -23 45 0 40 2 45 23 45 12 0
28 -4 36 -9z m111 -5 c28 -35 -11 -93 -47 -70 -36 22 -23 84 17 84 10 0 23 -7
30 -14z m9188 2 c8 -8 15 -8 27 2 20 17 32 5 15 -15 -10 -12 -10 -18 0 -30 17
-20 5 -32 -15 -15 -12 10 -18 10 -30 0 -20 -17 -32 -5 -15 15 10 12 10 19 2
27 -14 14 -16 28 -4 28 4 0 13 -5 20 -12z m-358 -28 c0 -27 -3 -30 -30 -30
-27 0 -30 3 -30 30 0 27 3 30 30 30 27 0 30 -3 30 -30z m-390 -30 c0 -5 -18
-10 -40 -10 -22 0 -40 5 -40 10 0 6 18 10 40 10 22 0 40 -4 40 -10z m-9490
-4866 l0 -56 26 31 c14 17 33 31 42 31 12 0 9 -7 -11 -28 l-26 -27 26 -33 c33
-43 19 -57 -16 -14 -29 34 -41 33 -41 -5 0 -12 -4 -23 -10 -23 -6 0 -10 37
-10 90 0 53 4 90 10 90 6 0 10 -25 10 -56z m520 41 c0 -8 -4 -15 -10 -15 -5 0
-10 7 -10 15 0 8 5 15 10 15 6 0 10 -7 10 -15z m60 -75 c0 -53 -4 -90 -10 -90
-6 0 -10 37 -10 90 0 53 4 90 10 90 6 0 10 -37 10 -90z m60 0 c0 -53 -4 -90
-10 -90 -6 0 -10 37 -10 90 0 53 4 90 10 90 6 0 10 -37 10 -90z m-900 70 c0
-5 -11 -10 -25 -10 -24 0 -25 -2 -25 -75 0 -60 -3 -75 -15 -75 -12 0 -15 15
-15 75 0 73 -1 75 -25 75 -14 0 -25 5 -25 10 0 6 28 10 65 10 37 0 65 -4 65
-10z m561 -45 c7 -30 15 -55 19 -55 4 0 14 24 22 53 8 29 20 52 28 52 7 0 22
-27 34 -60 l20 -60 15 63 c9 39 20 62 28 62 9 0 12 -7 9 -17 -3 -10 -13 -48
-22 -85 -21 -86 -38 -88 -61 -8 -9 33 -20 57 -24 53 -4 -4 -14 -30 -22 -58
-21 -74 -38 -65 -64 33 -17 64 -18 82 -8 82 8 0 18 -22 26 -55z m538 -26 c35
-92 35 -89 21 -89 -6 0 -15 11 -20 25 -8 20 -16 25 -45 25 -29 0 -36 -4 -41
-25 -3 -14 -13 -25 -21 -25 -8 0 -13 4 -11 8 2 5 16 43 33 85 16 42 35 77 41
77 7 0 26 -36 43 -81z m811 46 c0 -34 1 -35 40 -35 39 0 40 1 40 35 0 24 5 35
15 35 12 0 15 -16 15 -85 0 -69 -3 -85 -15 -85 -11 0 -15 11 -15 40 l0 40 -40
0 -40 0 0 -40 c0 -29 -4 -40 -15 -40 -12 0 -15 16 -15 85 0 69 3 85 15 85 10
0 15 -11 15 -35z m-1820 -24 c5 -11 10 -39 10 -63 l0 -44 -42 -1 c-46 -2 -68
10 -68 38 0 21 28 39 59 39 13 0 21 6 21 16 0 12 -7 15 -30 12 -16 -3 -30 -2
-30 2 0 27 65 27 80 1z m115 9 c4 -6 -6 -10 -24 -10 -42 0 -49 -18 -12 -31 41
-15 56 -42 35 -64 -18 -17 -75 -17 -81 1 -2 6 10 8 32 6 47 -6 47 19 0 41 -36
17 -44 34 -23 55 15 15 64 16 73 2z m240 0 c4 -6 -6 -10 -24 -10 -42 0 -49
-18 -12 -31 41 -15 56 -42 35 -64 -18 -17 -75 -17 -81 1 -2 6 10 8 32 6 47 -6
47 19 0 41 -36 17 -44 34 -23 55 15 15 64 16 73 2z m335 -55 c0 -37 -4 -65
-10 -65 -6 0 -10 28 -10 65 0 37 4 65 10 65 6 0 10 -28 10 -65z m477 35 c27
-51 -4 -105 -54 -97 -32 6 -33 5 -33 -29 0 -19 -4 -34 -10 -34 -6 0 -10 38
-10 93 l0 94 47 -1 c40 -1 49 -5 60 -26z m150 0 c27 -51 -4 -105 -54 -97 -32
6 -33 5 -33 -29 0 -19 -4 -34 -10 -34 -6 0 -10 38 -10 93 l0 94 47 -1 c40 -1
49 -5 60 -26z m131 18 c7 -7 12 -22 12 -35 0 -20 -5 -23 -41 -23 -33 0 -40 -3
-37 -17 2 -13 14 -19 41 -21 43 -4 40 -22 -4 -22 -57 0 -87 60 -53 108 17 24
62 30 82 10z m142 -7 c5 -11 10 -39 10 -63 l0 -44 -42 -1 c-46 -2 -68 10 -68
38 0 21 28 39 59 39 13 0 21 6 21 16 0 12 -7 15 -30 12 -16 -3 -30 -2 -30 2 0
27 65 27 80 1z m60 8 c0 -8 4 -8 15 1 8 6 22 10 32 7 15 -3 13 -6 -8 -15 -30
-12 -39 -30 -39 -78 0 -19 -4 -34 -10 -34 -6 0 -10 28 -10 65 0 37 4 65 10 65
6 0 10 -5 10 -11z m408 -1 c7 -7 12 -22 12 -35 0 -20 -5 -23 -41 -23 -33 0
-40 -3 -37 -17 2 -13 14 -19 41 -21 43 -4 40 -22 -4 -22 -57 0 -87 60 -53 108
17 24 62 30 82 10z m72 1 c0 -8 4 -8 15 1 8 6 22 10 32 7 15 -3 13 -6 -8 -15
-30 -12 -39 -30 -39 -78 0 -19 -4 -34 -10 -34 -6 0 -10 28 -10 65 0 37 4 65
10 65 6 0 10 -5 10 -11z m158 -1 c7 -7 12 -22 12 -35 0 -20 -5 -23 -41 -23
-33 0 -40 -3 -37 -17 2 -13 14 -19 41 -21 43 -4 40 -22 -4 -22 -57 0 -87 60
-53 108 17 24 62 30 82 10z m-1428 -789 c0 -49 -1 -50 -27 -47 -22 2 -29 9
-31 31 -3 22 1 30 17 34 12 3 21 12 21 19 0 8 5 14 10 14 6 0 10 -23 10 -51z
m80 0 c0 -49 -1 -50 -27 -47 -22 2 -29 9 -31 31 -3 22 1 30 17 34 12 3 21 12
21 19 0 8 5 14 10 14 6 0 10 -23 10 -51z m271 1 c5 0 9 5 9 10 0 6 5 10 11 10
8 0 7 -5 -1 -15 -10 -12 -10 -19 -2 -27 20 -20 13 -32 -7 -14 -18 17 -19 17
-24 -1 -3 -10 -5 7 -4 37 0 30 2 43 4 28 2 -16 9 -28 14 -28z m-445 5 c18 -44
19 -64 2 -47 -15 15 -48 16 -48 2 0 -5 -4 -10 -10 -10 -5 0 -2 20 8 45 9 25
20 45 25 45 4 0 15 -16 23 -35z m272 28 c-13 -3 -18 -16 -20 -46 l-1 -42 -4
42 c-3 29 -9 43 -21 46 -9 3 1 5 23 5 22 0 32 -2 23 -5z m70 -50 c3 -30 1 -33
-22 -33 -34 0 -37 37 -3 43 22 4 22 4 -3 15 l-25 12 25 -3 c20 -2 26 -8 28
-34z m50 30 c-22 -6 -23 -19 -3 -27 24 -9 18 -36 -7 -35 -17 1 -19 2 -5 6 21
6 22 19 2 27 -24 9 -18 36 8 35 16 -1 18 -2 5 -6z m130 0 c-22 -6 -23 -19 -3
-27 24 -9 18 -36 -7 -35 -17 1 -19 2 -5 6 21 6 22 19 2 27 -24 9 -18 36 8 35
16 -1 18 -2 5 -6z"/>
<path d="M9489 10004 c-9 -11 -10 -20 -2 -32 24 -38 62 -15 48 29 -8 23 -28
24 -46 3z"/>
<path d="M9580 9985 c0 -32 3 -36 23 -33 17 2 22 10 22 33 0 23 -5 31 -22 33
-20 3 -23 -1 -23 -33z"/>
<path d="M9689 10004 c-9 -11 -10 -20 -2 -32 24 -38 62 -15 48 29 -8 23 -28
24 -46 3z"/>
<path d="M18530 9990 c0 -5 5 -10 10 -10 6 0 10 5 10 10 0 6 -4 10 -10 10 -5
0 -10 -4 -10 -10z"/>
<path d="M9473 5075 c-11 -34 -10 -35 14 -35 21 0 23 3 17 23 -14 46 -20 48
-31 12z"/>
<path d="M8450 5015 c-10 -12 -9 -16 4 -21 22 -8 46 2 46 21 0 19 -34 20 -50
0z"/>
<path d="M9612 5068 c-27 -27 -8 -78 30 -78 19 0 32 35 26 67 -4 22 -38 29
-56 11z"/>
<path d="M9762 5068 c-27 -27 -8 -78 30 -78 19 0 32 35 26 67 -4 22 -38 29
-56 11z"/>
<path d="M9907 5074 c-15 -15 -6 -24 24 -24 20 0 29 4 27 13 -5 14 -40 21 -51
11z"/>
<path d="M10040 5015 c-10 -12 -9 -16 4 -21 22 -8 46 2 46 21 0 19 -34 20 -50
0z"/>
<path d="M10517 5074 c-15 -15 -6 -24 24 -24 20 0 29 4 27 13 -5 14 -40 21
-51 11z"/>
<path d="M10747 5074 c-15 -15 -6 -24 24 -24 20 0 29 4 27 13 -5 14 -40 21
-51 11z"/>
<path d="M9334 4295 c-3 -8 -3 -19 1 -25 11 -18 25 -11 25 15 0 27 -17 34 -26
10z"/>
<path d="M9414 4295 c-3 -8 -3 -19 1 -25 11 -18 25 -11 25 15 0 27 -17 34 -26
10z"/>
<path d="M9257 4305 c-8 -20 -4 -29 11 -24 5 2 6 13 2 23 -6 19 -7 19 -13 1z"/>
<path d="M9590 4270 c0 -5 7 -10 16 -10 8 0 12 5 9 10 -3 6 -10 10 -16 10 -5
0 -9 -4 -9 -10z"/>
</g>
</svg>
